<svg xmlns="http://www.w3.org/2000/svg" xmlns:xlink="http://www.w3.org/1999/xlink" width="640" height="640" viewBox="0 0 640 640">
  <defs>
    <clipPath id="clip-path">
      <rect id="Rectangle_2" data-name="Rectangle 2" width="512" height="512"/>
    </clipPath>
    <clipPath id="clip-SPRK_default_preset_name_custom_1">
      <rect width="640" height="640"/>
    </clipPath>
  </defs>
  <g id="SPRK_default_preset_name_custom_1" data-name="SPRK_default_preset_name_custom – 1" clip-path="url(#clip-SPRK_default_preset_name_custom_1)">
    <rect width="640" height="640" fill="#fff"/>
    <g id="app-icon" transform="translate(64 64)" clip-path="url(#clip-path)">
      <rect id="Rectangle_1" data-name="Rectangle 1" width="512" height="512" fill="#fff"/>
      <g id="Group_7" data-name="Group 7" transform="translate(-40.376 -20.839)">
        <path id="Path_2" data-name="Path 2" d="M148.73,6.766A42.813,42.813,0,0,0,106.614,41.7a36.271,36.271,0,0,0-6.281-.562c-.179,0-.353.022-.536.027s-.353-.027-.536-.027a6.612,6.612,0,0,0-1.08.107,40.794,40.794,0,0,0-38.63,40.67,37.026,37.026,0,0,0,.665,6.946A40.849,40.849,0,0,0,25.465,129.2a37.008,37.008,0,0,0,.821,7.615,53.791,53.791,0,0,0-4.379,79.8A63.184,63.184,0,0,0,33.43,309.657a47.2,47.2,0,0,0-1.8,16.243,48.812,48.812,0,0,0,51.892,45.54,43.4,43.4,0,0,0,6.249-.888,54.424,54.424,0,0,0,101.94-26.533V49.766a43.032,43.032,0,0,0-42.986-43Zm29.6,337.244a41.032,41.032,0,0,1-78.808,16.012,6.7,6.7,0,0,0-6.165-4.08,6.59,6.59,0,0,0-2.076.33A35.122,35.122,0,0,1,47.669,309.42c.031-.076.022-.161.049-.237A36.428,36.428,0,0,1,81.63,287.075a6.7,6.7,0,1,0,0-13.391A50.28,50.28,0,0,0,39.01,297.07a49.7,49.7,0,0,1-5.8-72.988,54.01,54.01,0,0,0,81.375-46.669,6.7,6.7,0,0,0-13.391,0,40.723,40.723,0,1,1-81.446,0v-.027a40.658,40.658,0,0,1,17.913-32.354,6.691,6.691,0,0,0,2.638-7.584,26.786,26.786,0,0,1-1.437-8.258,27.425,27.425,0,0,1,27.653-27.341h.1c.46.062.92.121,1.388.152a6.693,6.693,0,0,0,6.91-8.374s-.013-.062-.036-.138c.013-.156.027-.3.031-.424a6.633,6.633,0,0,0-.362-2.361,26.991,26.991,0,0,1-1.6-8.8A27.4,27.4,0,0,1,99.793,54.542,27.407,27.407,0,0,1,126.647,81.9a6.7,6.7,0,1,0,13.391,0,40.771,40.771,0,0,0-20.587-35.38,29.523,29.523,0,0,1,58.877,3.236V344.01Z" transform="translate(113.804 74.237)" fill="#3498db"/>
        <g id="Group_6" data-name="Group 6" transform="translate(304.041 81.003)">
          <line id="Line_1" data-name="Line 1" y1="76.647" x2="42.832" transform="translate(59.046 82.283)" fill="none" stroke="#3498db" stroke-width="10"/>
          <g id="Ellipse_2" data-name="Ellipse 2" transform="translate(75.443 0)" fill="#fff" stroke="#3498db" stroke-width="12">
            <ellipse cx="46.597" cy="45.858" rx="46.597" ry="45.858" stroke="none"/>
            <ellipse cx="46.597" cy="45.858" rx="40.597" ry="39.858" fill="none"/>
          </g>
          <g id="Ellipse_3" data-name="Ellipse 3" transform="translate(0 149.407)" fill="#fff" stroke="#3498db" stroke-width="12">
            <circle cx="45.858" cy="45.858" r="45.858" stroke="none"/>
            <circle cx="45.858" cy="45.858" r="39.858" fill="none"/>
          </g>
          <line id="Line_1-2" data-name="Line 1" x2="42.832" y2="77.108" transform="translate(59.053 231.369)" fill="none" stroke="#3498db" stroke-width="10"/>
          <g id="Ellipse_2-2" data-name="Ellipse 2" transform="translate(75.45 298.262)" fill="#fff" stroke="#3498db" stroke-width="12">
            <ellipse cx="46.597" cy="46.134" rx="46.597" ry="46.134" stroke="none"/>
            <ellipse cx="46.597" cy="46.134" rx="40.597" ry="40.134" fill="none"/>
          </g>
        </g>
      </g>
    </g>
  </g>
</svg>
